<?xml version="1.0" encoding="UTF-8" standalone="no" ?>
<!DOCTYPE svg PUBLIC "-//W3C//DTD SVG 1.1//EN" "http://www.w3.org/Graphics/SVG/1.1/DTD/svg11.dtd">
<svg xmlns="http://www.w3.org/2000/svg" xmlns:xlink="http://www.w3.org/1999/xlink" version="1.1" width="1080" height="1080" viewBox="0 0 1080 1080" xml:space="preserve">
<desc>Created with Fabric.js 5.2.4</desc>
<defs>
</defs>
<g transform="matrix(1 0 0 1 540 540)" id="fcecdafd-2ed6-42d2-a34e-145d255fd9fd"  >
<rect style="stroke: none; stroke-width: 1; stroke-dasharray: none; stroke-linecap: butt; stroke-dashoffset: 0; stroke-linejoin: miter; stroke-miterlimit: 4; fill: rgb(255,255,255); fill-rule: nonzero; opacity: 1; visibility: hidden;" vector-effect="non-scaling-stroke"  x="-540" y="-540" rx="0" ry="0" width="1080" height="1080" />
</g>
<g transform="matrix(1 0 0 1 540 540)" id="5987556c-8478-48f1-9457-1b9907207685"  >
</g>
<g transform="matrix(45 0 0 45 540 540)"  >
<path style="stroke: none; stroke-width: 1; stroke-dasharray: none; stroke-linecap: butt; stroke-dashoffset: 0; stroke-linejoin: miter; stroke-miterlimit: 4; fill: rgb(0,0,0); fill-rule: nonzero; opacity: 1;"  transform=" translate(-12, -12)" d="M 12 17 C 12.2833 17 12.5208 16.9042 12.7125 16.7125 C 12.9042 16.5208 13 16.2833 13 16 C 13 15.7167 12.9042 15.4792 12.7125 15.2875 C 12.5208 15.0958 12.2833 15 12 15 C 11.7167 15 11.4792 15.0958 11.2875 15.2875 C 11.0958 15.4792 11 15.7167 11 16 C 11 16.2833 11.0958 16.5208 11.2875 16.7125 C 11.4792 16.9042 11.7167 17 12 17 Z M 12 13 C 12.2833 13 12.5208 12.9042 12.7125 12.7125 C 12.9042 12.5208 13 12.2833 13 12 L 13 8 C 13 7.71667 12.9042 7.47917 12.7125 7.2875 C 12.5208 7.09583 12.2833 7 12 7 C 11.7167 7 11.4792 7.09583 11.2875 7.2875 C 11.0958 7.47917 11 7.71667 11 8 L 11 12 C 11 12.2833 11.0958 12.5208 11.2875 12.7125 C 11.4792 12.9042 11.7167 13 12 13 Z M 12 22 C 10.6167 22 9.31667 21.7375 8.1 21.2125 C 6.88333 20.6875 5.825 19.975 4.925 19.075 C 4.025 18.175 3.3125 17.1167 2.7875 15.9 C 2.2625 14.6833 2 13.3833 2 12 C 2 10.6167 2.2625 9.31667 2.7875 8.1 C 3.3125 6.88333 4.025 5.825 4.925 4.925 C 5.825 4.025 6.88333 3.3125 8.1 2.7875 C 9.31667 2.2625 10.6167 2 12 2 C 13.3833 2 14.6833 2.2625 15.9 2.7875 C 17.1167 3.3125 18.175 4.025 19.075 4.925 C 19.975 5.825 20.6875 6.88333 21.2125 8.1 C 21.7375 9.31667 22 10.6167 22 12 C 22 13.3833 21.7375 14.6833 21.2125 15.9 C 20.6875 17.1167 19.975 18.175 19.075 19.075 C 18.175 19.975 17.1167 20.6875 15.9 21.2125 C 14.6833 21.7375 13.3833 22 12 22 Z M 12 20 C 14.2333 20 16.125 19.225 17.675 17.675 C 19.225 16.125 20 14.2333 20 12 C 20 9.76667 19.225 7.875 17.675 6.325 C 16.125 4.775 14.2333 4 12 4 C 9.76667 4 7.875 4.775 6.325 6.325 C 4.775 7.875 4 9.76667 4 12 C 4 14.2333 4.775 16.125 6.325 17.675 C 7.875 19.225 9.76667 20 12 20 Z" stroke-linecap="round" />
</g>
</svg>