<?xml version="1.0" encoding="UTF-8" standalone="no" ?>
<!DOCTYPE svg PUBLIC "-//W3C//DTD SVG 1.1//EN" "http://www.w3.org/Graphics/SVG/1.1/DTD/svg11.dtd">
<svg xmlns="http://www.w3.org/2000/svg" xmlns:xlink="http://www.w3.org/1999/xlink" version="1.1" width="1080" height="1080" viewBox="0 0 1080 1080" xml:space="preserve">
<desc>Created with Fabric.js 5.2.4</desc>
<defs>
</defs>
<g transform="matrix(1 0 0 1 540 540)" id="6da0f298-9b0b-4055-ac64-488a9964a24e"  >
<rect style="stroke: none; stroke-width: 1; stroke-dasharray: none; stroke-linecap: butt; stroke-dashoffset: 0; stroke-linejoin: miter; stroke-miterlimit: 4; fill: rgb(255,255,255); fill-rule: nonzero; opacity: 1; visibility: hidden;" vector-effect="non-scaling-stroke"  x="-540" y="-540" rx="0" ry="0" width="1080" height="1080" />
</g>
<g transform="matrix(1 0 0 1 540 540)" id="0de9e7ec-a88c-40ee-bb82-bbba0b19d175"  >
</g>
<g transform="matrix(45 0 0 45 540 540)"  >
<path style="stroke: none; stroke-width: 1; stroke-dasharray: none; stroke-linecap: butt; stroke-dashoffset: 0; stroke-linejoin: miter; stroke-miterlimit: 4; fill: rgb(0,0,0); fill-rule: nonzero; opacity: 1;"  transform=" translate(-12, -11.5)" d="M 9 3 L 9 1 L 15 1 L 15 3 L 9 3 Z M 11 14 L 13 14 L 13 8 L 11 8 L 11 14 Z M 12 22 C 10.7667 22 9.60417 21.7625 8.5125 21.2875 C 7.42083 20.8125 6.46667 20.1667 5.65 19.35 C 4.83333 18.5333 4.1875 17.5792 3.7125 16.4875 C 3.2375 15.3958 3 14.2333 3 13 C 3 11.7667 3.2375 10.6042 3.7125 9.5125 C 4.1875 8.42083 4.83333 7.46667 5.65 6.65 C 6.46667 5.83333 7.42083 5.1875 8.5125 4.7125 C 9.60417 4.2375 10.7667 4 12 4 C 13.0333 4 14.025 4.16667 14.975 4.5 C 15.925 4.83333 16.8167 5.31667 17.65 5.95 L 19.05 4.55 L 20.45 5.95 L 19.05 7.35 C 19.6833 8.18333 20.1667 9.075 20.5 10.025 C 20.8333 10.975 21 11.9667 21 13 C 21 14.2333 20.7625 15.3958 20.2875 16.4875 C 19.8125 17.5792 19.1667 18.5333 18.35 19.35 C 17.5333 20.1667 16.5792 20.8125 15.4875 21.2875 C 14.3958 21.7625 13.2333 22 12 22 Z M 12 20 C 13.9333 20 15.5833 19.3167 16.95 17.95 C 18.3167 16.5833 19 14.9333 19 13 C 19 11.0667 18.3167 9.41667 16.95 8.05 C 15.5833 6.68333 13.9333 6 12 6 C 10.0667 6 8.41667 6.68333 7.05 8.05 C 5.68333 9.41667 5 11.0667 5 13 C 5 14.9333 5.68333 16.5833 7.05 17.95 C 8.41667 19.3167 10.0667 20 12 20 Z" stroke-linecap="round" />
</g>
</svg>